<?xml version="1.0" encoding="iso-8859-1"?>
<!-- Uploaded to: SVG Repo, www.svgrepo.com, Generator: SVG Repo Mixer Tools -->
<svg height="800px" width="800px" version="1.1" id="Layer_1" xmlns="http://www.w3.org/2000/svg" xmlns:xlink="http://www.w3.org/1999/xlink" 
	 viewBox="0 0 434.44 434.44" xml:space="preserve">
<g>
	<path style="fill:#F24125;" d="M218.88,164.71c27.91,0,50.54,22.63,50.54,50.54c0,27.92-22.63,50.55-50.54,50.55
		c-27.92,0-50.55-22.63-50.55-50.55C168.33,187.34,190.96,164.71,218.88,164.71z M247.57,215.25c0-15.84-12.85-28.68-28.69-28.68
		c-15.85,0-28.69,12.84-28.69,28.68c0,15.85,12.84,28.69,28.69,28.69C234.72,243.94,247.57,231.1,247.57,215.25z"/>
	<path style="fill:#4CC18E;" d="M218.88,362.04v5.65h-5.65c-29.82,0-54-24.18-54-54v-5.65h5.65
		C194.7,308.04,218.88,332.22,218.88,362.04z"/>
	<path style="fill:#87B6DD;" d="M329.34,384.26H105.1V97.06h224.24V384.26z M218.88,367.69v-5.65c0-29.82-24.18-54-54-54h-5.65v5.65
		c0,29.82,24.18,54,54,54H218.88z M218.88,305.86c11.44,0,20.71-9.27,20.71-20.71v-19.9l14.07,14.08c8.09,8.08,21.2,8.08,29.29,0
		c4.05-4.05,6.07-9.35,6.07-14.65s-2.02-10.6-6.07-14.64l-14.07-14.08h19.9c11.44,0,20.71-9.27,20.71-20.71
		c0-5.71-2.32-10.89-6.07-14.64c-3.74-3.75-8.92-6.07-14.64-6.07h-19.9l14.07-14.07c8.09-8.09,8.09-21.2,0-29.29
		c-4.05-4.04-9.35-6.07-14.65-6.07s-10.6,2.03-14.64,6.07l-14.07,14.07v-19.9c0-11.43-9.27-20.71-20.71-20.71
		c-11.44,0-20.71,9.28-20.71,20.71v19.9l-14.07-14.07c-8.09-8.09-21.21-8.09-29.29,0c-4.05,4.04-6.07,9.34-6.07,14.64
		s2.02,10.6,6.07,14.65l14.07,14.07h-19.9c-11.44,0-20.71,9.28-20.71,20.71c0,5.72,2.32,10.9,6.07,14.65
		c3.74,3.74,8.92,6.06,14.64,6.06h19.9l-14.07,14.08c-8.09,8.08-8.09,21.2,0,29.29c4.04,4.04,9.34,6.06,14.64,6.06
		c5.3,0,10.61-2.02,14.65-6.06l14.07-14.08v19.9C198.17,296.59,207.44,305.86,218.88,305.86z"/>
	<polygon style="fill:#F7B239;" points="373.52,428.44 60.92,428.44 105.1,384.26 329.34,384.26 	"/>
	<polygon style="fill:#F7B239;" points="105.1,97.06 105.1,384.26 60.92,428.44 60.92,52.88 	"/>
	<polygon style="fill:#F7B239;" points="373.52,52.88 373.52,428.44 329.34,384.26 329.34,97.06 	"/>
	<polygon style="fill:#F7B239;" points="373.52,52.88 329.34,97.06 105.1,97.06 60.92,52.88 170.34,52.88 264.1,52.88 	"/>
	<path style="fill:#F7B239;" d="M218.88,186.57c15.84,0,28.69,12.84,28.69,28.68c0,15.85-12.85,28.69-28.69,28.69
		c-15.85,0-28.69-12.84-28.69-28.69C190.19,199.41,203.03,186.57,218.88,186.57z"/>
	<g>
		<path style="fill:#333333;" d="M373.52,46.88H266.586L221.463,1.757C220.338,0.632,218.812,0,217.22,0
			c-1.592,0-3.117,0.632-4.243,1.757L167.855,46.88H60.92c-3.313,0-6,2.687-6,6v375.56c0,3.314,2.687,6,6,6h312.6
			c3.313,0,6-2.686,6-6V52.88C379.52,49.567,376.834,46.88,373.52,46.88z M326.855,91.06H107.586l-32.18-32.18h283.629
			L326.855,91.06z M224.88,311.172c11.847-2.731,20.71-13.357,20.71-26.022v-5.408l3.83,3.833
			c10.413,10.4,27.356,10.401,37.773-0.002c5.047-5.047,7.827-11.757,7.827-18.893c0-7.142-2.782-13.849-7.826-18.881l-3.836-3.839
			h5.422c14.728,0,26.71-11.982,26.71-26.71c0-7.129-2.78-13.835-7.821-18.876c-5.038-5.051-11.746-7.833-18.889-7.833h-5.414
			l3.827-3.827c5.046-5.046,7.825-11.753,7.825-18.888s-2.779-13.842-7.83-18.893c-5.057-5.044-11.765-7.822-18.888-7.822
			c-7.129,0-13.835,2.78-18.882,7.827l-3.828,3.828v-5.415c0-14.728-11.982-26.71-26.71-26.71c-14.728,0-26.71,11.982-26.71,26.71
			v5.415l-3.827-3.827c-5.046-5.046-11.755-7.825-18.892-7.825c-7.138,0-13.845,2.78-18.878,7.819
			c-5.051,5.039-7.833,11.747-7.833,18.888c0,7.136,2.78,13.846,7.828,18.893l3.827,3.827h-5.415
			c-14.728,0-26.71,11.982-26.71,26.71c0,7.136,2.78,13.846,7.828,18.893c5.041,5.041,11.747,7.817,18.882,7.817h5.422l-3.832,3.835
			c-5.047,5.042-7.827,11.749-7.827,18.886s2.779,13.846,7.825,18.892c5.041,5.041,11.747,7.817,18.883,7.817
			c7.142,0,13.852-2.776,18.894-7.819l3.826-3.829v5.408c0,12.665,8.863,23.291,20.71,26.022v14.909
			c-10.956-14.587-28.394-24.042-48-24.042h-5.65c-3.313,0-6,2.687-6,6v5.65c0,32.967,26.727,59.801,59.65,59.991v4.579H111.1
			v-275.2h212.24v275.2h-98.46V311.172z M174.33,215.25c0-24.56,19.985-44.54,44.55-44.54c24.56,0,44.54,19.98,44.54,44.54
			c0,24.565-19.98,44.55-44.54,44.55C194.315,259.8,174.33,239.815,174.33,215.25z M267.866,243.434l10.847,10.854
			c2.777,2.771,4.307,6.462,4.307,10.393c0,3.93-1.532,7.626-4.31,10.405c-5.739,5.73-15.074,5.729-20.806,0.004l-10.84-10.847
			C255.692,259.257,262.884,252.063,267.866,243.434z M273.468,229.96c1.266-4.693,1.952-9.622,1.952-14.71
			s-0.687-10.017-1.953-14.71h15.313c3.931,0,7.622,1.53,10.397,4.313c2.781,2.781,4.313,6.473,4.313,10.397
			c0,8.111-6.599,14.71-14.71,14.71H273.468z M278.708,176.228l-10.842,10.842c-4.984-8.629-12.176-15.821-20.805-20.805
			l10.842-10.842c2.781-2.781,6.473-4.313,10.397-4.313c3.923,0,7.622,1.534,10.408,4.313c2.779,2.779,4.31,6.474,4.31,10.402
			S281.487,173.448,278.708,176.228z M233.59,160.663c-4.693-1.266-9.622-1.953-14.71-1.953c-5.088,0-10.017,0.687-14.71,1.952
			V145.35c0-8.111,6.599-14.71,14.71-14.71c8.111,0,14.71,6.599,14.71,14.71V160.663z M169.89,187.064l-10.837-10.837
			c-2.781-2.781-4.313-6.477-4.313-10.407c0-3.931,1.53-7.622,4.315-10.4c2.774-2.778,6.466-4.308,10.396-4.308
			c3.931,0,7.627,1.531,10.406,4.31l10.84,10.84C182.068,171.246,174.875,178.437,169.89,187.064z M164.284,200.54
			c-1.266,4.693-1.953,9.622-1.953,14.71s0.687,10.017,1.952,14.71H148.98c-3.93,0-7.623-1.528-10.397-4.302
			c-2.781-2.781-4.313-6.477-4.313-10.408c0-8.111,6.599-14.71,14.71-14.71H164.284z M159.054,254.281l10.834-10.842
			c4.984,8.628,12.176,15.821,20.805,20.804l-10.836,10.844c-2.774,2.775-6.471,4.303-10.407,4.303
			c-3.93,0-7.623-1.528-10.397-4.303c-2.779-2.779-4.31-6.475-4.31-10.406C154.743,260.751,156.273,257.06,159.054,254.281z
			 M204.17,269.848c4.693,1.266,9.622,1.952,14.71,1.952c5.088,0,10.017-0.687,14.71-1.953v15.303c0,8.111-6.599,14.71-14.71,14.71
			c-8.111,0-14.71-6.599-14.71-14.71V269.848z M212.879,361.689c-26.189-0.189-47.46-21.458-47.647-47.647
			C191.421,314.231,212.692,335.5,212.879,361.689z M99.1,99.545v282.229l-32.18,32.18V67.366L99.1,99.545z M107.586,390.26h219.269
			l32.18,32.18H75.406L107.586,390.26z M335.34,381.775V99.545l32.18-32.18v346.589L335.34,381.775z M217.22,14.485l32.395,32.395
			h-64.79L217.22,14.485z"/>
		<path style="fill:#333333;" d="M253.57,215.25c0-19.123-15.562-34.68-34.69-34.68c-19.128,0-34.69,15.557-34.69,34.68
			c0,19.128,15.562,34.69,34.69,34.69C238.008,249.94,253.57,234.378,253.57,215.25z M196.19,215.25
			c0-12.506,10.179-22.68,22.69-22.68c12.511,0,22.69,10.174,22.69,22.68c0,12.512-10.179,22.69-22.69,22.69
			C206.369,237.94,196.19,227.762,196.19,215.25z"/>
	</g>
	<path style="fill:#FFFFFF;" d="M353.72,368.44c-3.314,0-6-2.686-6-6v-237c0-3.314,2.686-6,6-6s6,2.686,6,6v237
		C359.72,365.754,357.034,368.44,353.72,368.44z"/>
	<path style="fill:#FFFFFF;" d="M353.723,111.439c-0.39,0-0.79-0.04-1.18-0.12c-0.38-0.07-0.76-0.19-1.12-0.34
		c-0.36-0.15-0.71-0.33-1.03-0.55c-0.33-0.22-0.64-0.47-0.92-0.75c-0.27-0.27-0.52-0.58-0.74-0.91c-0.22-0.32-0.4-0.67-0.55-1.03
		c-0.15-0.37-0.27-0.74-0.35-1.13c-0.07-0.38-0.11-0.78-0.11-1.17c0-1.58,0.64-3.12,1.75-4.24c0.28-0.28,0.59-0.53,0.92-0.75
		c0.32-0.21,0.67-0.4,1.03-0.55s0.74-0.26,1.12-0.34c0.78-0.16,1.58-0.16,2.35,0c0.38,0.08,0.76,0.19,1.12,0.34
		c0.36,0.15,0.71,0.34,1.04,0.55c0.33,0.22,0.63,0.47,0.91,0.75c1.12,1.12,1.76,2.66,1.76,4.24c0,0.39-0.04,0.79-0.12,1.17
		c-0.08,0.39-0.19,0.76-0.34,1.13c-0.15,0.36-0.34,0.71-0.55,1.03c-0.22,0.33-0.47,0.64-0.75,0.91c-0.28,0.28-0.58,0.53-0.91,0.75
		c-0.33,0.22-0.68,0.4-1.04,0.55c-0.36,0.15-0.74,0.27-1.12,0.34C354.503,111.399,354.113,111.439,353.723,111.439z"/>
</g>
</svg>