<svg id="Layer_1" data-name="Layer 1" xmlns="http://www.w3.org/2000/svg" viewBox="0 0 326.79 79.43"><defs><style>.cls-1{fill:none;stroke:#231f20;stroke-miterlimit:10;stroke-width:2px;}</style></defs><path class="cls-1" d="M378,298h1l.05,24.1c2.4.76,3,3.81,3.22,6.32q1.39,16.84,2.81,33.7l-32.71,6.66a19.61,19.61,0,0,0-8.26-22.73,7,7,0,0,0-4.73-1.19,7.36,7.36,0,0,0-3.67,2.39,29,29,0,0,0-7.9,21.9c.06-5.82,2.07-11.42,3.55-17A94.56,94.56,0,0,0,333,312l-17.91.87c-2.95-2-6.87,0-9.86,1.89-5.7,3.69-11.46,7.42-16.11,12.36s-8.14,11.29-8.34,18.08c-.17,5.91,3.05,12.49,8.82,13.75,1.77.39,3.93.42,4.88,2,1.11,1.8-.4,4.05-1.87,5.56-3,3.08-6.27,6-10.23,7.64s-8.69,1.88-12.39-.27L265.76,362c.94,1.4-1.91,2.06-3.43,1.36l-10.75-5A6,6,0,0,1,248.5,356a6.06,6.06,0,0,1-.34-3.14l3-41.17-25.89,39.17c-3,4.53-6,10.5-3,15l-10.12-4.85a7.69,7.69,0,0,1-3.13-2.2,7.27,7.27,0,0,1-1-3.76c-.53-7.55.62-15.15.1-22.7s-3.1-15.53-9.26-19.93c-1.53-1.08-3.4-1.94-5.23-1.55s-3,1.75-4.23,3.07l-9.66,10.73-12.05,44.87a38,38,0,0,1-14.57-16c-5.91-12.27-4.79-26.62-3.54-40.18q-8,8.88-16,17.75c-3.7,4.09-7.65,9-6.71,14.45-4.69,2.25-10.54-.29-13.74-4.39s-4.41-9.36-5.59-14.42-2.52-10.32-5.91-14.26A204.78,204.78,0,0,0,85.9,335.64c-3.38,5.81-6.48,11.79-10.37,17.27a73,73,0,0,1-15.57,16" transform="translate(-59.36 -297)"/></svg>