<svg id="Layer_1" data-name="Layer 1" xmlns="http://www.w3.org/2000/svg" viewBox="0 0 326.72 79.43"><defs><style>.cls-1{fill:none;stroke:#231f20;stroke-miterlimit:10;stroke-width:2px;}</style></defs><path class="cls-1" d="M60,368.93a73,73,0,0,0,15.57-16c3.89-5.48,7-11.46,10.37-17.27a204.78,204.78,0,0,1,15.67-23.07c3.39,3.94,4.73,9.19,5.91,14.26s2.38,10.33,5.59,14.42,9.05,6.64,13.74,4.39c-.94-5.43,3-10.36,6.71-14.45q8-8.88,16-17.75c-1.25,13.56-2.37,27.91,3.54,40.18a38,38,0,0,0,14.57,16" transform="translate(-59.36 -297)"/><path class="cls-1" d="M179.69,324.71,189.35,314c1.19-1.32,2.49-2.71,4.23-3.07s3.7.47,5.23,1.55c6.16,4.4,8.74,12.37,9.26,19.93s-.63,15.15-.1,22.7a7.27,7.27,0,0,0,1,3.76,7.69,7.69,0,0,0,3.13,2.2l10.12,4.85c-3-4.53,0-10.5,3-15l25.89-39.17-3,41.17a6.06,6.06,0,0,0,.34,3.14,6,6,0,0,0,3.08,2.36l10.75,5c1.52.7,4.37,0,3.43-1.36" transform="translate(-59.36 -297)"/><path class="cls-1" d="M315.11,312.9c-2.95-2-6.87,0-9.86,1.89-5.7,3.69-11.46,7.42-16.11,12.36s-8.14,11.29-8.34,18.08c-.17,5.91,3.05,12.49,8.82,13.75,1.77.39,3.93.42,4.88,2,1.11,1.8-.4,4.05-1.87,5.56-3,3.08-6.27,6-10.23,7.64s-8.69,1.88-12.39-.27" transform="translate(-59.36 -297)"/><path class="cls-1" d="M333,312a94.56,94.56,0,0,1-1.66,40.07c-1.48,5.63-3.49,11.23-3.55,17a29,29,0,0,1,7.9-21.9,7.36,7.36,0,0,1,3.67-2.39,7,7,0,0,1,4.73,1.19,19.61,19.61,0,0,1,8.26,22.73" transform="translate(-59.36 -297)"/><path class="cls-1" d="M379.05,322.1c2.4.76,3,3.81,3.22,6.32q1.39,16.84,2.81,33.7" transform="translate(-59.36 -297)"/><path class="cls-1" d="M378,298h1" transform="translate(-59.36 -297)"/></svg>