<svg id="Layer_1" data-name="Layer 1" xmlns="http://www.w3.org/2000/svg" viewBox="0 0 199.49 81.24"><defs><style>.cls-1{fill:none;stroke:#231f20;stroke-miterlimit:10;}</style></defs><path class="cls-1" d="M291,237.21A207.68,207.68,0,0,1,266.5,287.7c.06-6.25,4.71-11.66,10.13-14.77s11.65-4.45,17.59-6.4a88,88,0,0,0,36.25-22.91c-4-2.55-9.57-.85-12.85,2.55s-4.82,8.08-6.27,12.59c-2.83,8.85-5.69,17.87-5.65,27.16,8.92-.12,17.4-3.65,25.61-7.13,3.74-1.58,7.58-3.24,10.41-6.14s4.43-7.42,2.77-11.13a22.87,22.87,0,0,0-14.26,22,8.05,8.05,0,0,0,1.41,4.62c1.37,1.73,3.7,2.33,5.87,2.76A111.25,111.25,0,0,0,389,288.79" transform="translate(-265.99 -225.38)"/><path class="cls-1" d="M423.68,288.51c4.35-7.22,4.69-26.57-3.89-30.36-7.58-3.34-14.62,1.74-18.58,8-4.48,7.1-6.13,17.15-3.2,25.14C402.33,303,418.25,297.49,423.68,288.51Z" transform="translate(-265.99 -225.38)"/><path class="cls-1" d="M439.48,225.44l-7.78,65.19c-.42,3.49-.69,7.46,1.67,10.06a10.59,10.59,0,0,0,4.11,2.51,41.78,41.78,0,0,0,27.84,1" transform="translate(-265.99 -225.38)"/></svg>